<?xml version="1.0" encoding="UTF-8" standalone="no"?>
<!-- Created with Inkscape (http://www.inkscape.org/) -->

<svg
   width="600"
   height="600"
   viewBox="0 0 600 600"
   version="1.1"
   id="SVGRoot"
   sodipodi:docname="/tmp/ink_ext_XXXXXX.svgIE0U01"
   inkscape:export-filename="bitmap.svg"
   inkscape:export-xdpi="96"
   inkscape:export-ydpi="96"
   xmlns:inkscape="http://www.inkscape.org/namespaces/inkscape"
   xmlns:sodipodi="http://sodipodi.sourceforge.net/DTD/sodipodi-0.dtd"
   xmlns="http://www.w3.org/2000/svg"
   xmlns:svg="http://www.w3.org/2000/svg">
  <sodipodi:namedview
     id="namedview2913"
     pagecolor="#ffffff"
     bordercolor="#000000"
     borderopacity="0.25"
     inkscape:showpageshadow="2"
     inkscape:pageopacity="0.0"
     inkscape:pagecheckerboard="0"
     inkscape:deskcolor="#d1d1d1"
     inkscape:document-units="px"
     showgrid="false"
     inkscape:zoom="0.25"
     inkscape:cx="1133.5"
     inkscape:cy="1133.5"
     inkscape:window-width="1499"
     inkscape:window-height="991"
     inkscape:window-x="26"
     inkscape:window-y="23"
     inkscape:window-maximized="0"
     inkscape:current-layer="layer1" />
  <defs
     id="defs2908" />
  <g
     inkscape:label="Layer 1"
     inkscape:groupmode="layer"
     id="layer1">
    <path
       class="cls-1"
       d="m 589.39879,239.34916 -0.8413,-2.14998 -81.44982,-212.567171 a 21.219329,21.219329 0 0 0 -8.38179,-10.09554 21.811352,21.811352 0 0 0 -24.92726,1.33984 21.811352,21.811352 0 0 0 -7.2289,10.967994 L 411.57395,195.10331 H 188.88005 L 133.88428,26.844303 a 21.375125,21.375125 0 0 0 -7.2289,-10.999153 21.811352,21.811352 0 0 0 -24.92726,-1.33984 21.406284,21.406284 0 0 0 -8.381794,10.09554 l -81.605614,212.4737 -0.810136,2.14997 a 151.24614,151.24614 0 0 0 50.166109,174.80241 l 0.280432,0.21811 0.747817,0.52971 124.075436,92.91636 61.38337,46.45818 37.3909,28.23012 a 25.145372,25.145372 0 0 0 30.41125,0 l 37.39089,-28.23012 61.38338,-46.45818 124.82324,-93.47722 0.3116,-0.24928 a 151.30846,151.30846 0 0 0 50.10379,-174.61545 z"
       id="path6"
       style="fill:#171321;stroke-width:3.11591" />
  </g>
</svg>
